<?xml version="1.0" encoding="UTF-8"?>
<!DOCTYPE svg PUBLIC "-//W3C//DTD SVG 1.1//EN" "http://www.w3.org/Graphics/SVG/1.1/DTD/svg11.dtd">
<svg version="1.2" width="110.97mm" height="37.55mm" viewBox="4137 8168 11097 3755" preserveAspectRatio="xMidYMid" fill-rule="evenodd" stroke-width="28.222" stroke-linejoin="round" xmlns="http://www.w3.org/2000/svg" xmlns:ooo="http://xml.openoffice.org/svg/export" xmlns:xlink="http://www.w3.org/1999/xlink" xmlns:presentation="http://sun.com/xmlns/staroffice/presentation" xmlns:smil="http://www.w3.org/2001/SMIL20/" xmlns:anim="urn:oasis:names:tc:opendocument:xmlns:animation:1.0" xml:space="preserve">
 <defs class="ClipPathGroup">
  <clipPath id="presentation_clip_path" clipPathUnits="userSpaceOnUse">
   <rect x="4137" y="8168" width="11097" height="3755"/>
  </clipPath>
  <clipPath id="presentation_clip_path_shrink" clipPathUnits="userSpaceOnUse">
   <rect x="4148" y="8171" width="11075" height="3748"/>
  </clipPath>
 </defs>
 <defs class="TextShapeIndex">
  <g ooo:slide="id1" ooo:id-list="id3 id4 id5 id6 id7 id8 id9 id10"/>
 </defs>
 <defs class="EmbeddedBulletChars">
  <g id="bullet-char-template-57356" transform="scale(0.00048828125,-0.00048828125)">
   <path d="M 580,1141 L 1163,571 580,0 -4,571 580,1141 Z"/>
  </g>
  <g id="bullet-char-template-57354" transform="scale(0.00048828125,-0.00048828125)">
   <path d="M 8,1128 L 1137,1128 1137,0 8,0 8,1128 Z"/>
  </g>
  <g id="bullet-char-template-10146" transform="scale(0.00048828125,-0.00048828125)">
   <path d="M 174,0 L 602,739 174,1481 1456,739 174,0 Z M 1358,739 L 309,1346 659,739 1358,739 Z"/>
  </g>
  <g id="bullet-char-template-10132" transform="scale(0.00048828125,-0.00048828125)">
   <path d="M 2015,739 L 1276,0 717,0 1260,543 174,543 174,936 1260,936 717,1481 1274,1481 2015,739 Z"/>
  </g>
  <g id="bullet-char-template-10007" transform="scale(0.00048828125,-0.00048828125)">
   <path d="M 0,-2 C -7,14 -16,27 -25,37 L 356,567 C 262,823 215,952 215,954 215,979 228,992 255,992 264,992 276,990 289,987 310,991 331,999 354,1012 L 381,999 492,748 772,1049 836,1024 860,1049 C 881,1039 901,1025 922,1006 886,937 835,863 770,784 769,783 710,716 594,584 L 774,223 C 774,196 753,168 711,139 L 727,119 C 717,90 699,76 672,76 641,76 570,178 457,381 L 164,-76 C 142,-110 111,-127 72,-127 30,-127 9,-110 8,-76 1,-67 -2,-52 -2,-32 -2,-23 -1,-13 0,-2 Z"/>
  </g>
  <g id="bullet-char-template-10004" transform="scale(0.00048828125,-0.00048828125)">
   <path d="M 285,-33 C 182,-33 111,30 74,156 52,228 41,333 41,471 41,549 55,616 82,672 116,743 169,778 240,778 293,778 328,747 346,684 L 369,508 C 377,444 397,411 428,410 L 1163,1116 C 1174,1127 1196,1133 1229,1133 1271,1133 1292,1118 1292,1087 L 1292,965 C 1292,929 1282,901 1262,881 L 442,47 C 390,-6 338,-33 285,-33 Z"/>
  </g>
  <g id="bullet-char-template-9679" transform="scale(0.00048828125,-0.00048828125)">
   <path d="M 813,0 C 632,0 489,54 383,161 276,268 223,411 223,592 223,773 276,916 383,1023 489,1130 632,1184 813,1184 992,1184 1136,1130 1245,1023 1353,916 1407,772 1407,592 1407,412 1353,268 1245,161 1136,54 992,0 813,0 Z"/>
  </g>
  <g id="bullet-char-template-8226" transform="scale(0.00048828125,-0.00048828125)">
   <path d="M 346,457 C 273,457 209,483 155,535 101,586 74,649 74,723 74,796 101,859 155,911 209,963 273,989 346,989 419,989 480,963 531,910 582,859 608,796 608,723 608,648 583,586 532,535 482,483 420,457 346,457 Z"/>
  </g>
  <g id="bullet-char-template-8211" transform="scale(0.00048828125,-0.00048828125)">
   <path d="M -4,459 L 1135,459 1135,606 -4,606 -4,459 Z"/>
  </g>
  <g id="bullet-char-template-61548" transform="scale(0.00048828125,-0.00048828125)">
   <path d="M 173,740 C 173,903 231,1043 346,1159 462,1274 601,1332 765,1332 928,1332 1067,1274 1183,1159 1299,1043 1357,903 1357,740 1357,577 1299,437 1183,322 1067,206 928,148 765,148 601,148 462,206 346,322 231,437 173,577 173,740 Z"/>
  </g>
 </defs>
 <defs class="TextEmbeddedBitmaps"/>
 <g class="SlideGroup">
  <g>
   <g id="container-id1">
    <g id="id1" class="Slide" clip-path="url(#presentation_clip_path)">
     <g class="Page">
      <g class="com.sun.star.drawing.CustomShape">
       <g id="id3">
        <rect class="BoundingBox" stroke="none" fill="none" x="4392" y="8167" width="10343" height="618"/>
        <path fill="rgb(86,132,199)" stroke="none" d="M 4419,8757 L 14707,8757 13251,8194 5874,8194 4419,8757 Z M 4419,8757 L 4419,8757 Z M 14707,8194 L 14707,8194 Z"/>
        <path fill="none" stroke="rgb(0,0,0)" stroke-width="53" stroke-linejoin="round" d="M 4419,8757 L 14707,8757 13251,8194 5874,8194 4419,8757 Z"/>
       </g>
      </g>
      <g class="com.sun.star.drawing.CustomShape">
       <g id="id4">
        <rect class="BoundingBox" stroke="none" fill="none" x="4136" y="8914" width="11099" height="3010"/>
        <path fill="rgb(242,234,74)" stroke="none" d="M 4163,8966 L 4521,8967 4521,9591 5331,9677 5331,8971 5690,8973 5690,10886 5331,10791 5331,9972 4521,9852 4521,10576 4163,10481 4163,8966 Z M 5889,8973 L 7174,8979 7174,9352 6248,9309 6248,9774 7136,9867 7136,10239 6248,10107 6248,10701 7197,10913 7197,11286 5889,10939 5889,8973 Z M 7683,9369 L 7683,10103 7947,10136 7984,10139 8019,10138 8052,10135 8083,10129 8097,10124 8111,10118 8124,10111 8137,10103 8149,10096 8161,10086 8172,10077 8182,10066 8191,10054 8200,10041 8209,10028 8217,10014 8224,10000 8230,9984 8236,9968 8242,9951 8250,9914 8256,9873 8261,9830 8261,9784 8261,9738 8256,9695 8250,9654 8242,9616 8236,9598 8230,9581 8224,9564 8217,9548 8209,9532 8200,9518 8191,9503 8182,9490 8172,9478 8161,9466 8149,9456 8137,9445 8124,9436 8111,9427 8083,9412 8052,9399 8019,9391 7984,9384 7947,9382 7683,9369 Z M 7324,8980 L 7947,8982 8028,8986 8104,8996 8175,9012 8241,9035 8303,9064 8332,9083 8359,9101 8385,9122 8411,9145 8434,9169 8457,9194 8478,9222 8499,9251 8517,9281 8534,9314 8550,9346 8565,9382 8578,9419 8590,9457 8600,9497 8610,9537 8623,9625 8632,9717 8634,9816 8632,9914 8623,10007 8610,10092 8600,10132 8590,10170 8578,10206 8565,10240 8550,10274 8534,10305 8517,10333 8499,10360 8478,10386 8457,10410 8434,10432 8411,10452 8385,10469 8359,10485 8332,10500 8303,10513 8241,10532 8175,10543 8104,10547 8028,10544 7947,10534 7683,10490 7683,11415 7324,11320 7324,8980 Z M 8734,8986 L 9092,8987 9092,10074 9685,10136 9902,10113 9902,8989 10261,8988 10261,11793 9902,11888 9902,10583 9685,10615 9092,10528 9092,11788 8734,11693 8734,8986 Z M 10460,8987 L 11745,8981 11745,9373 10819,9416 10819,10017 11707,9923 11707,10316 10819,10448 10819,11215 11768,11003 11768,11393 10460,11740 10460,8987 Z M 12922,10096 L 12924,10095 12925,10094 12927,10093 12929,10091 12931,10091 12933,10091 12935,10090 12937,10091 12942,10092 12948,10094 12954,10097 12960,10101 12974,10111 12990,10125 13008,10142 13028,10163 13050,10187 13070,10213 13091,10241 13111,10270 13152,10336 13193,10408 13487,10937 13097,11041 12844,10559 12822,10518 12801,10481 12781,10447 12760,10417 12740,10392 12721,10370 12701,10353 12692,10345 12682,10339 12673,10335 12663,10330 12642,10321 12619,10314 12594,10311 12567,10309 12538,10309 12508,10311 12476,10315 12254,10351 12254,11264 11895,11359 11895,8980 12518,8978 12600,8980 12677,8987 12749,9000 12816,9017 12877,9039 12906,9051 12933,9066 12960,9081 12985,9096 13009,9114 13031,9132 13052,9151 13072,9172 13090,9194 13107,9217 13122,9241 13137,9267 13150,9293 13161,9321 13172,9350 13181,9379 13194,9443 13203,9512 13205,9585 13204,9634 13200,9681 13193,9727 13183,9771 13170,9813 13154,9854 13135,9893 13113,9931 13090,9966 13066,9997 13044,10024 13032,10036 13020,10046 13008,10056 12995,10065 12983,10073 12972,10080 12960,10085 12947,10090 12935,10093 12922,10096 Z M 12254,9343 L 12254,9987 12518,9955 12557,9950 12594,9942 12627,9931 12659,9919 12687,9905 12700,9897 12713,9889 12725,9881 12736,9871 12746,9861 12756,9851 12766,9840 12774,9829 12783,9817 12789,9805 12796,9792 12803,9779 12809,9764 12814,9750 12818,9736 12822,9720 12827,9687 12832,9653 12833,9616 12832,9579 12827,9546 12822,9514 12818,9499 12814,9485 12809,9472 12803,9459 12796,9447 12789,9435 12783,9423 12774,9414 12766,9403 12756,9394 12746,9386 12736,9378 12725,9371 12713,9364 12700,9358 12687,9352 12659,9343 12627,9337 12594,9332 12557,9330 12518,9331 12254,9343 Z M 14687,9358 L 14668,9340 14649,9323 14629,9308 14607,9293 14585,9281 14563,9268 14540,9258 14515,9248 14490,9240 14464,9233 14438,9227 14410,9223 14382,9219 14352,9217 14292,9217 14232,9222 14202,9227 14174,9233 14146,9240 14120,9248 14094,9258 14068,9269 14044,9282 14020,9296 13997,9312 13975,9328 13954,9347 13934,9366 13913,9387 13895,9410 13877,9434 13860,9459 13845,9485 13830,9513 13805,9570 13784,9632 13767,9699 13756,9769 13750,9844 13747,9923 13750,10001 13756,10073 13767,10140 13784,10202 13805,10258 13830,10309 13845,10332 13860,10354 13877,10374 13895,10393 13913,10411 13934,10427 13954,10441 13975,10453 13997,10464 14020,10474 14044,10482 14068,10487 14094,10492 14119,10495 14146,10496 14174,10496 14202,10494 14231,10491 14292,10480 14352,10464 14382,10453 14410,10442 14437,10430 14464,10417 14490,10404 14515,10388 14540,10372 14562,10355 14585,10337 14607,10318 14629,10298 14649,10277 14668,10255 14687,10232 14705,10209 14722,10184 14737,10159 14751,10134 14777,10081 14797,10025 14813,9967 14825,9906 14832,9843 14835,9776 14832,9710 14825,9647 14814,9589 14798,9535 14777,9486 14751,9439 14737,9417 14722,9396 14705,9376 14687,9358 Z M 14292,8941 L 14394,8944 14490,8956 14535,8964 14580,8974 14624,8986 14666,8999 14707,9014 14746,9031 14785,9050 14822,9069 14857,9090 14892,9114 14925,9138 14957,9164 14988,9191 15016,9220 15042,9249 15067,9279 15089,9310 15109,9343 15145,9410 15172,9482 15191,9558 15202,9639 15207,9726 15202,9812 15191,9896 15172,9977 15145,10057 15109,10134 15089,10171 15067,10208 15042,10245 15016,10281 14988,10317 14957,10352 14925,10387 14892,10421 14858,10453 14822,10484 14785,10514 14746,10543 14707,10570 14666,10596 14624,10621 14580,10645 14535,10667 14490,10688 14394,10725 14292,10756 14190,10780 14094,10794 14048,10797 14002,10798 13959,10796 13917,10792 13875,10786 13835,10776 13797,10764 13760,10749 13724,10732 13689,10712 13656,10689 13624,10664 13594,10636 13566,10606 13539,10574 13515,10540 13493,10503 13472,10465 13437,10382 13410,10291 13390,10192 13378,10087 13374,9973 13378,9859 13389,9749 13410,9645 13437,9547 13472,9454 13493,9410 13515,9367 13539,9326 13566,9287 13594,9249 13624,9213 13656,9179 13689,9148 13724,9118 13760,9091 13797,9066 13835,9044 13875,9024 13917,9006 13959,8990 14002,8977 14047,8966 14094,8957 14190,8944 14292,8941 Z"/>
        <path fill="none" stroke="rgb(0,0,0)" stroke-width="53" stroke-linejoin="miter" d="M 4163,8966 L 4521,8967 4521,9591 5331,9677 5331,8971 5690,8973 5690,10886 5331,10791 5331,9972 4521,9852 4521,10576 4163,10481 4163,8966 Z"/>
        <path fill="none" stroke="rgb(0,0,0)" stroke-width="53" stroke-linejoin="miter" d="M 5889,8973 L 7174,8979 7174,9352 6248,9309 6248,9774 7136,9867 7136,10239 6248,10107 6248,10701 7197,10913 7197,11286 5889,10939 5889,8973 Z"/>
        <path fill="none" stroke="rgb(0,0,0)" stroke-width="53" stroke-linejoin="miter" d="M 7683,9369 L 7683,10103 7947,10136 7984,10139 8019,10138 8052,10135 8083,10129 8097,10124 8111,10118 8124,10111 8137,10103 8149,10096 8161,10086 8172,10077 8182,10066 8191,10054 8200,10041 8209,10028 8217,10014 8224,10000 8230,9984 8236,9968 8242,9951 8250,9914 8256,9873 8261,9830 8261,9784 8261,9738 8256,9695 8250,9654 8242,9616 8236,9598 8230,9581 8224,9564 8217,9548 8209,9532 8200,9518 8191,9503 8182,9490 8172,9478 8161,9466 8149,9456 8137,9445 8124,9436 8111,9427 8083,9412 8052,9399 8019,9391 7984,9384 7947,9382 7683,9369 Z"/>
        <path fill="none" stroke="rgb(0,0,0)" stroke-width="53" stroke-linejoin="miter" d="M 7324,8980 L 7947,8982 8028,8986 8104,8996 8175,9012 8241,9035 8303,9064 8332,9083 8359,9101 8385,9122 8411,9145 8434,9169 8457,9194 8478,9222 8499,9251 8517,9281 8534,9314 8550,9346 8565,9382 8578,9419 8590,9457 8600,9497 8610,9537 8623,9625 8632,9717 8634,9816 8632,9914 8623,10007 8610,10092 8600,10132 8590,10170 8578,10206 8565,10240 8550,10274 8534,10305 8517,10333 8499,10360 8478,10386 8457,10410 8434,10432 8411,10452 8385,10469 8359,10485 8332,10500 8303,10513 8241,10532 8175,10543 8104,10547 8028,10544 7947,10534 7683,10490 7683,11415 7324,11320 7324,8980 Z"/>
        <path fill="none" stroke="rgb(0,0,0)" stroke-width="53" stroke-linejoin="miter" d="M 8734,8986 L 9092,8987 9092,10074 9685,10136 9902,10113 9902,8989 10261,8988 10261,11793 9902,11888 9902,10583 9685,10615 9092,10528 9092,11788 8734,11693 8734,8986 Z"/>
        <path fill="none" stroke="rgb(0,0,0)" stroke-width="53" stroke-linejoin="miter" d="M 10460,8987 L 11745,8981 11745,9373 10819,9416 10819,10017 11707,9923 11707,10316 10819,10448 10819,11215 11768,11003 11768,11393 10460,11740 10460,8987 Z"/>
        <path fill="none" stroke="rgb(0,0,0)" stroke-width="53" stroke-linejoin="miter" d="M 12922,10096 L 12924,10095 12925,10094 12927,10093 12929,10091 12931,10091 12933,10091 12935,10090 12937,10091 12942,10092 12948,10094 12954,10097 12960,10101 12974,10111 12990,10125 13008,10142 13028,10163 13050,10187 13070,10213 13091,10241 13111,10270 13152,10336 13193,10408 13487,10937 13097,11041 12844,10559 12822,10518 12801,10481 12781,10447 12760,10417 12740,10392 12721,10370 12701,10353 12692,10345 12682,10339 12673,10335 12663,10330 12642,10321 12619,10314 12594,10311 12567,10309 12538,10309 12508,10311 12476,10315 12254,10351 12254,11264 11895,11359 11895,8980 12518,8978 12600,8980 12677,8987 12749,9000 12816,9017 12877,9039 12906,9051 12933,9066 12960,9081 12985,9096 13009,9114 13031,9132 13052,9151 13072,9172 13090,9194 13107,9217 13122,9241 13137,9267 13150,9293 13161,9321 13172,9350 13181,9379 13194,9443 13203,9512 13205,9585 13204,9634 13200,9681 13193,9727 13183,9771 13170,9813 13154,9854 13135,9893 13113,9931 13090,9966 13066,9997 13044,10024 13032,10036 13020,10046 13008,10056 12995,10065 12983,10073 12972,10080 12960,10085 12947,10090 12935,10093 12922,10096 Z"/>
        <path fill="none" stroke="rgb(0,0,0)" stroke-width="53" stroke-linejoin="miter" d="M 12254,9343 L 12254,9987 12518,9955 12557,9950 12594,9942 12627,9931 12659,9919 12687,9905 12700,9897 12713,9889 12725,9881 12736,9871 12746,9861 12756,9851 12766,9840 12774,9829 12783,9817 12789,9805 12796,9792 12803,9779 12809,9764 12814,9750 12818,9736 12822,9720 12827,9687 12832,9653 12833,9616 12832,9579 12827,9546 12822,9514 12818,9499 12814,9485 12809,9472 12803,9459 12796,9447 12789,9435 12783,9423 12774,9414 12766,9403 12756,9394 12746,9386 12736,9378 12725,9371 12713,9364 12700,9358 12687,9352 12659,9343 12627,9337 12594,9332 12557,9330 12518,9331 12254,9343 Z"/>
        <path fill="none" stroke="rgb(0,0,0)" stroke-width="53" stroke-linejoin="miter" d="M 14687,9358 L 14668,9340 14649,9323 14629,9308 14607,9293 14585,9281 14563,9268 14540,9258 14515,9248 14490,9240 14464,9233 14438,9227 14410,9223 14382,9219 14352,9217 14292,9217 14232,9222 14202,9227 14174,9233 14146,9240 14120,9248 14094,9258 14068,9269 14044,9282 14020,9296 13997,9312 13975,9328 13954,9347 13934,9366 13913,9387 13895,9410 13877,9434 13860,9459 13845,9485 13830,9513 13805,9570 13784,9632 13767,9699 13756,9769 13750,9844 13747,9923 13750,10001 13756,10073 13767,10140 13784,10202 13805,10258 13830,10309 13845,10332 13860,10354 13877,10374 13895,10393 13913,10411 13934,10427 13954,10441 13975,10453 13997,10464 14020,10474 14044,10482 14068,10487 14094,10492 14119,10495 14146,10496 14174,10496 14202,10494 14231,10491 14292,10480 14352,10464 14382,10453 14410,10442 14437,10430 14464,10417 14490,10404 14515,10388 14540,10372 14562,10355 14585,10337 14607,10318 14629,10298 14649,10277 14668,10255 14687,10232 14705,10209 14722,10184 14737,10159 14751,10134 14777,10081 14797,10025 14813,9967 14825,9906 14832,9843 14835,9776 14832,9710 14825,9647 14814,9589 14798,9535 14777,9486 14751,9439 14737,9417 14722,9396 14705,9376 14687,9358 Z"/>
        <path fill="none" stroke="rgb(0,0,0)" stroke-width="53" stroke-linejoin="miter" d="M 14292,8941 L 14394,8944 14490,8956 14535,8964 14580,8974 14624,8986 14666,8999 14707,9014 14746,9031 14785,9050 14822,9069 14857,9090 14892,9114 14925,9138 14957,9164 14988,9191 15016,9220 15042,9249 15067,9279 15089,9310 15109,9343 15145,9410 15172,9482 15191,9558 15202,9639 15207,9726 15202,9812 15191,9896 15172,9977 15145,10057 15109,10134 15089,10171 15067,10208 15042,10245 15016,10281 14988,10317 14957,10352 14925,10387 14892,10421 14858,10453 14822,10484 14785,10514 14746,10543 14707,10570 14666,10596 14624,10621 14580,10645 14535,10667 14490,10688 14394,10725 14292,10756 14190,10780 14094,10794 14048,10797 14002,10798 13959,10796 13917,10792 13875,10786 13835,10776 13797,10764 13760,10749 13724,10732 13689,10712 13656,10689 13624,10664 13594,10636 13566,10606 13539,10574 13515,10540 13493,10503 13472,10465 13437,10382 13410,10291 13390,10192 13378,10087 13374,9973 13378,9859 13389,9749 13410,9645 13437,9547 13472,9454 13493,9410 13515,9367 13539,9326 13566,9287 13594,9249 13624,9213 13656,9179 13689,9148 13724,9118 13760,9091 13797,9066 13835,9044 13875,9024 13917,9006 13959,8990 14002,8977 14047,8966 14094,8957 14190,8944 14292,8941 Z"/>
       </g>
      </g>
      <g class="com.sun.star.drawing.CustomShape">
       <g id="id5">
        <rect class="BoundingBox" stroke="none" fill="none" x="13440" y="9090" width="1651" height="1677"/>
        <path fill="rgb(242,234,74)" stroke="none" d="M 14485,9091 C 14934,9084 15182,9442 15058,9917 14933,10392 14494,10759 14045,10765 13596,10772 13349,10414 13473,9939 13598,9464 14036,9097 14485,9091 Z M 13693,9102 L 13693,9102 Z M 14840,10755 L 14840,10755 Z"/>
       </g>
      </g>
      <g class="com.sun.star.drawing.CustomShape">
       <g id="id6">
        <rect class="BoundingBox" stroke="none" fill="none" x="13536" y="9339" width="1484" height="1021"/>
        <path fill="none" stroke="rgb(86,132,199)" stroke-width="53" stroke-linejoin="round" d="M 14178,9689 C 14528,9432 14837,9304 14892,9395 14948,9486 14724,9752 14375,10010 14026,10268 13716,10394 13661,10303 13605,10212 13829,9947 14178,9689 Z"/>
       </g>
      </g>
      <g class="com.sun.star.drawing.CustomShape">
       <g id="id7">
        <rect class="BoundingBox" stroke="none" fill="none" x="14039" y="9075" width="463" height="1540"/>
        <path fill="none" stroke="rgb(86,132,199)" stroke-width="53" stroke-linejoin="round" d="M 14073,9879 C 14077,9478 14165,9156 14276,9137 14387,9118 14470,9410 14466,9811 14462,10212 14373,10534 14262,10553 14151,10572 14069,10280 14073,9879 Z"/>
       </g>
      </g>
      <g class="com.sun.star.drawing.CustomShape">
       <g id="id8">
        <rect class="BoundingBox" stroke="none" fill="none" x="13642" y="9376" width="1264" height="944"/>
        <path fill="none" stroke="rgb(86,132,199)" stroke-width="53" stroke-linejoin="round" d="M 14170,10028 C 13833,9879 13620,9687 13678,9585 13737,9483 14040,9520 14377,9669 14714,9819 14927,10011 14869,10113 14810,10215 14507,10178 14170,10028 Z"/>
       </g>
      </g>
      <g class="com.sun.star.drawing.CustomShape">
       <g id="id9">
        <rect class="BoundingBox" stroke="none" fill="none" x="14181" y="9759" width="195" height="182"/>
        <path fill="rgb(86,132,199)" stroke="none" d="M 14277,9770 C 14326,9762 14365,9789 14365,9834 14365,9879 14326,9921 14277,9929 14228,9938 14190,9909 14190,9864 14190,9819 14228,9778 14277,9770 Z M 14190,9785 L 14190,9785 Z M 14366,9915 L 14366,9915 Z"/>
        <path fill="none" stroke="rgb(86,132,199)" stroke-width="18" stroke-linejoin="round" d="M 14277,9770 C 14326,9762 14365,9789 14365,9834 14365,9879 14326,9921 14277,9929 14228,9938 14190,9909 14190,9864 14190,9819 14228,9778 14277,9770 Z"/>
       </g>
      </g>
      <g class="com.sun.star.drawing.CustomShape">
       <g id="id10">
        <rect class="BoundingBox" stroke="none" fill="none" x="8920" y="8367" width="1353" height="320"/>
        <path fill="rgb(242,234,74)" stroke="none" d="M 8939,8610 L 9108,8388 9142,8388 9001,8585 9163,8585 9149,8610 8939,8610 Z M 9298,8403 L 9311,8376 9342,8376 9330,8403 9298,8403 Z M 9197,8610 L 9280,8439 9314,8439 9239,8610 9197,8610 Z M 9530,8523 L 9526,8544 9522,8553 9518,8562 9514,8570 9509,8578 9503,8584 9498,8590 9491,8595 9483,8599 9475,8604 9465,8607 9456,8609 9446,8611 9435,8612 9424,8612 9417,8612 9411,8612 9403,8612 9397,8611 9393,8610 9387,8609 9383,8607 9380,8606 9378,8606 9374,8604 9371,8601 9367,8599 9364,8596 9361,8593 9359,8590 9356,8587 9355,8582 9354,8582 9351,8591 9348,8599 9345,8606 9345,8607 9345,8608 9344,8608 9344,8608 9344,8608 9344,8608 9344,8609 9344,8609 9343,8609 9343,8609 9343,8609 9343,8609 9343,8609 9343,8609 9343,8609 9303,8609 9303,8609 9303,8608 9303,8607 9306,8604 9306,8604 9306,8602 9307,8600 9309,8596 9312,8586 9317,8574 9390,8376 9422,8376 9401,8442 9398,8452 9397,8452 9396,8454 9396,8454 9395,8456 9395,8458 9394,8459 9392,8466 9393,8466 9396,8462 9400,8459 9405,8456 9409,8452 9413,8449 9416,8447 9419,8445 9421,8445 9423,8443 9426,8443 9428,8442 9430,8441 9435,8439 9440,8439 9444,8437 9449,8437 9455,8437 9460,8436 9466,8436 9471,8436 9475,8436 9480,8437 9484,8437 9488,8438 9492,8439 9495,8440 9499,8441 9502,8443 9506,8444 9508,8446 9511,8448 9514,8450 9515,8452 9518,8455 9520,8458 9523,8463 9526,8470 9528,8477 9530,8485 9531,8494 9532,8502 9531,8513 9530,8523 Z M 9490,8524 L 9491,8516 9492,8508 9492,8501 9492,8494 9491,8488 9491,8483 9491,8480 9489,8477 9488,8475 9488,8473 9487,8471 9485,8469 9484,8468 9482,8466 9480,8465 9479,8464 9478,8464 9477,8463 9477,8462 9474,8462 9474,8462 9472,8461 9469,8460 9467,8459 9464,8459 9461,8458 9458,8458 9455,8458 9452,8458 9449,8458 9445,8458 9442,8458 9439,8458 9435,8459 9432,8460 9430,8460 9426,8461 9423,8462 9421,8463 9418,8464 9416,8466 9413,8468 9410,8470 9408,8471 9405,8473 9403,8475 9401,8477 9398,8480 9396,8483 9393,8485 9391,8488 9389,8491 9387,8494 9385,8498 9383,8501 9380,8509 9377,8517 9373,8526 9371,8535 9369,8543 9368,8550 9367,8557 9367,8563 9369,8568 9370,8570 9371,8573 9372,8575 9373,8577 9375,8579 9376,8580 9378,8582 9380,8584 9383,8585 9385,8586 9387,8587 9390,8588 9394,8589 9396,8589 9399,8590 9403,8591 9406,8591 9410,8591 9415,8591 9418,8591 9422,8591 9425,8591 9429,8591 9432,8591 9435,8590 9438,8589 9442,8589 9444,8588 9448,8587 9451,8586 9453,8585 9456,8583 9459,8582 9461,8580 9463,8578 9466,8576 9467,8574 9470,8572 9472,8570 9473,8567 9475,8564 9477,8561 9480,8555 9483,8549 9485,8541 9488,8533 9490,8524 Z M 9570,8610 L 9581,8479 9582,8468 9583,8457 9583,8456 9583,8454 9583,8452 9583,8449 9583,8449 9583,8447 9584,8439 9616,8439 9615,8440 9616,8441 9616,8442 9616,8443 9616,8445 9616,8447 9616,8452 9616,8454 9616,8456 9616,8457 9617,8462 9616,8464 9616,8466 9616,8474 9617,8474 9619,8469 9621,8464 9623,8460 9625,8457 9626,8455 9627,8454 9628,8452 9629,8450 9631,8449 9632,8447 9634,8447 9635,8445 9637,8444 9638,8443 9640,8442 9641,8441 9643,8440 9645,8439 9649,8438 9650,8437 9652,8437 9654,8437 9656,8437 9659,8436 9661,8436 9663,8436 9666,8436 9668,8436 9669,8436 9670,8436 9671,8436 9672,8436 9673,8437 9673,8437 9674,8437 9674,8437 9675,8437 9676,8437 9677,8437 9678,8437 9679,8437 9680,8437 9680,8437 9680,8437 9681,8464 9680,8464 9679,8463 9678,8463 9677,8463 9676,8462 9675,8462 9674,8462 9673,8462 9672,8462 9671,8462 9668,8462 9666,8462 9664,8462 9663,8462 9660,8462 9657,8462 9654,8462 9652,8463 9648,8464 9646,8464 9644,8466 9642,8466 9640,8468 9638,8468 9636,8470 9634,8472 9633,8473 9631,8475 9630,8477 9627,8479 9625,8483 9623,8487 9621,8492 9619,8497 9618,8502 9617,8509 9615,8515 9615,8521 9612,8610 9570,8610 Z M 9793,8613 L 9783,8613 9775,8612 9771,8612 9767,8611 9762,8610 9758,8610 9755,8609 9752,8608 9748,8606 9746,8606 9742,8604 9739,8603 9737,8601 9734,8599 9732,8597 9729,8596 9728,8594 9725,8592 9722,8588 9720,8583 9717,8578 9715,8573 9714,8568 9713,8562 9713,8558 9713,8554 9714,8551 9715,8547 9715,8544 9716,8540 9717,8537 9719,8534 9721,8532 9723,8530 9725,8527 9728,8525 9732,8523 9735,8521 9738,8519 9741,8517 9744,8516 9747,8515 9750,8513 9755,8513 9758,8511 9762,8511 9766,8510 9771,8509 9775,8509 9779,8508 9783,8507 9789,8507 9797,8506 9806,8506 9856,8506 9854,8496 9852,8492 9850,8487 9850,8485 9848,8483 9848,8481 9846,8479 9846,8477 9844,8475 9843,8473 9841,8472 9840,8471 9838,8469 9836,8468 9835,8466 9831,8464 9829,8464 9828,8462 9825,8462 9823,8461 9821,8460 9819,8460 9817,8459 9815,8459 9812,8458 9809,8458 9807,8458 9804,8458 9802,8458 9799,8458 9796,8458 9794,8458 9789,8458 9785,8458 9781,8459 9779,8459 9777,8460 9775,8460 9773,8460 9772,8461 9770,8462 9769,8462 9767,8463 9766,8464 9764,8464 9763,8466 9762,8466 9760,8468 9759,8468 9758,8471 9757,8475 9756,8476 9755,8477 9756,8479 9755,8481 9755,8483 9755,8485 9717,8482 9717,8479 9718,8477 9719,8475 9718,8473 9719,8471 9720,8468 9722,8466 9723,8464 9725,8460 9727,8458 9729,8456 9730,8454 9732,8452 9735,8450 9737,8449 9739,8447 9741,8446 9744,8445 9747,8443 9750,8443 9754,8441 9760,8439 9764,8439 9767,8438 9771,8437 9776,8437 9780,8437 9785,8436 9791,8436 9796,8436 9805,8436 9814,8437 9822,8438 9826,8439 9830,8440 9834,8441 9838,8442 9841,8443 9845,8444 9848,8446 9851,8447 9854,8449 9857,8451 9860,8453 9864,8455 9866,8457 9869,8459 9870,8461 9873,8464 9878,8468 9882,8475 9885,8480 9888,8487 9890,8494 9912,8567 9914,8573 9915,8576 9917,8578 9917,8580 9919,8582 9921,8585 9921,8585 9922,8586 9923,8587 9924,8587 9924,8589 9926,8589 9927,8589 9928,8590 9929,8591 9930,8591 9931,8591 9933,8592 9934,8592 9936,8592 9938,8593 9939,8593 9941,8593 9942,8593 9944,8593 9944,8593 9945,8593 9946,8593 9947,8592 9949,8592 9951,8592 9951,8592 9953,8592 9953,8592 9954,8592 9954,8591 9954,8591 9955,8591 9955,8591 9961,8609 9960,8609 9959,8610 9958,8610 9955,8610 9954,8610 9949,8610 9948,8611 9946,8611 9943,8611 9942,8612 9940,8612 9939,8612 9934,8612 9930,8612 9926,8612 9924,8612 9922,8612 9919,8611 9916,8611 9914,8610 9911,8610 9909,8610 9906,8609 9905,8608 9902,8608 9901,8607 9898,8606 9896,8605 9895,8604 9893,8603 9890,8601 9887,8598 9886,8597 9885,8595 9884,8594 9882,8592 9881,8591 9880,8589 9879,8587 9878,8585 9876,8583 9876,8581 9875,8577 9874,8577 9869,8585 9866,8589 9863,8592 9861,8594 9859,8595 9857,8597 9855,8598 9853,8599 9851,8601 9846,8604 9844,8604 9842,8606 9838,8606 9836,8608 9833,8608 9830,8609 9823,8610 9820,8611 9816,8612 9812,8612 9809,8612 9805,8612 9802,8613 9797,8613 9793,8613 Z M 9799,8592 L 9804,8592 9809,8591 9814,8591 9817,8591 9822,8590 9825,8589 9829,8588 9832,8587 9835,8585 9839,8585 9842,8583 9845,8581 9847,8580 9850,8578 9852,8576 9854,8574 9856,8572 9858,8570 9859,8568 9860,8566 9861,8564 9863,8562 9864,8557 9865,8555 9865,8553 9866,8551 9865,8549 9866,8547 9866,8544 9865,8542 9864,8540 9861,8526 9819,8526 9812,8526 9805,8527 9792,8528 9789,8528 9787,8528 9784,8529 9781,8530 9779,8530 9776,8531 9774,8532 9772,8533 9770,8534 9768,8535 9766,8536 9763,8538 9761,8539 9760,8540 9758,8542 9757,8544 9757,8546 9756,8548 9755,8550 9754,8552 9754,8555 9753,8557 9754,8560 9754,8563 9754,8566 9756,8569 9756,8572 9758,8575 9760,8578 9761,8578 9762,8580 9763,8581 9765,8582 9766,8583 9767,8584 9768,8585 9770,8586 9772,8587 9774,8587 9775,8588 9777,8589 9780,8589 9781,8590 9784,8591 9786,8591 9787,8591 9790,8591 9792,8592 9795,8592 9799,8592 Z M 9994,8610 L 9946,8479 9942,8468 9938,8457 9937,8456 9937,8454 9936,8452 9934,8449 9934,8449 9933,8447 9930,8439 9962,8439 9963,8440 9964,8441 9964,8442 9965,8443 9966,8445 9967,8447 9969,8452 9969,8454 9970,8456 9971,8457 9974,8462 9974,8464 9975,8466 9979,8474 9980,8474 9980,8469 9979,8464 9979,8460 9980,8457 9980,8455 9980,8454 9981,8452 9981,8450 9982,8449 9983,8447 9985,8447 9985,8445 9986,8444 9987,8443 9988,8442 9989,8441 9991,8440 9991,8439 9995,8438 9996,8437 9998,8437 10000,8437 10002,8437 10005,8436 10007,8436 10009,8436 10012,8436 10014,8436 10015,8436 10016,8436 10017,8436 10018,8436 10019,8437 10019,8437 10020,8437 10020,8437 10021,8437 10022,8437 10023,8437 10024,8437 10025,8437 10026,8437 10026,8437 10026,8437 10039,8464 10038,8464 10037,8463 10036,8463 10035,8463 10034,8462 10032,8462 10031,8462 10030,8462 10029,8462 10028,8462 10025,8462 10023,8462 10021,8462 10020,8462 10017,8462 10014,8462 10011,8462 10009,8463 10006,8464 10005,8464 10003,8466 10001,8466 10000,8468 9998,8468 9997,8470 9995,8472 9995,8473 9993,8475 9993,8477 9992,8479 9992,8483 9992,8487 9991,8492 9992,8497 9994,8502 9995,8509 9996,8515 9999,8521 10036,8610 9994,8610 Z M 10261,8610 L 10262,8625 10261,8631 10260,8637 10259,8644 10257,8649 10256,8652 10255,8654 10254,8656 10252,8658 10250,8661 10248,8663 10246,8665 10244,8667 10242,8668 10239,8669 10237,8671 10234,8672 10231,8673 10227,8674 10224,8675 10219,8675 10215,8676 10210,8677 10207,8677 10201,8677 10186,8677 10184,8677 10183,8676 10179,8676 10176,8676 10174,8675 10172,8675 10170,8675 10159,8654 10159,8654 10160,8654 10160,8654 10162,8654 10163,8654 10165,8654 10166,8654 10167,8654 10170,8654 10180,8654 10183,8654 10185,8654 10188,8654 10189,8654 10191,8654 10193,8653 10196,8653 10197,8652 10199,8652 10201,8651 10204,8650 10208,8648 10211,8646 10213,8643 10215,8640 10217,8637 10219,8633 10220,8629 10220,8625 10221,8620 10220,8616 10221,8609 10035,8439 10072,8439 10173,8534 10186,8545 10201,8559 10209,8566 10212,8569 10215,8572 10217,8573 10218,8574 10220,8576 10221,8578 10223,8578 10223,8579 10223,8579 10223,8579 10223,8578 10222,8578 10222,8576 10221,8572 10219,8561 10218,8548 10217,8542 10217,8539 10217,8537 10192,8439 10229,8439 10261,8610 Z"/>
        <path fill="none" stroke="rgb(242,234,74)" stroke-width="18" stroke-linejoin="miter" d="M 8939,8610 L 9108,8388 9142,8388 9001,8585 9163,8585 9149,8610 8939,8610 Z"/>
        <path fill="none" stroke="rgb(242,234,74)" stroke-width="18" stroke-linejoin="miter" d="M 9298,8403 L 9311,8376 9342,8376 9330,8403 9298,8403 Z"/>
        <path fill="none" stroke="rgb(242,234,74)" stroke-width="18" stroke-linejoin="miter" d="M 9197,8610 L 9280,8439 9314,8439 9239,8610 9197,8610 Z"/>
        <path fill="none" stroke="rgb(242,234,74)" stroke-width="18" stroke-linejoin="miter" d="M 9530,8523 L 9526,8544 9522,8553 9518,8562 9514,8570 9509,8578 9503,8584 9498,8590 9491,8595 9483,8599 9475,8604 9465,8607 9456,8609 9446,8611 9435,8612 9424,8612 9417,8612 9411,8612 9403,8612 9397,8611 9393,8610 9387,8609 9383,8607 9380,8606 9378,8606 9374,8604 9371,8601 9367,8599 9364,8596 9361,8593 9359,8590 9356,8587 9355,8582 9354,8582 9351,8591 9348,8599 9345,8606 9345,8607 9345,8608 9344,8608 9344,8608 9344,8608 9344,8608 9344,8609 9344,8609 9343,8609 9343,8609 9343,8609 9343,8609 9343,8609 9343,8609 9343,8609 9303,8609 9303,8609 9303,8608 9303,8607 9306,8604 9306,8604 9306,8602 9307,8600 9309,8596 9312,8586 9317,8574 9390,8376 9422,8376 9401,8442 9398,8452 9397,8452 9396,8454 9396,8454 9395,8456 9395,8458 9394,8459 9392,8466 9393,8466 9396,8462 9400,8459 9405,8456 9409,8452 9413,8449 9416,8447 9419,8445 9421,8445 9423,8443 9426,8443 9428,8442 9430,8441 9435,8439 9440,8439 9444,8437 9449,8437 9455,8437 9460,8436 9466,8436 9471,8436 9475,8436 9480,8437 9484,8437 9488,8438 9492,8439 9495,8440 9499,8441 9502,8443 9506,8444 9508,8446 9511,8448 9514,8450 9515,8452 9518,8455 9520,8458 9523,8463 9526,8470 9528,8477 9530,8485 9531,8494 9532,8502 9531,8513 9530,8523 Z"/>
        <path fill="none" stroke="rgb(242,234,74)" stroke-width="18" stroke-linejoin="miter" d="M 9490,8524 L 9491,8516 9492,8508 9492,8501 9492,8494 9491,8488 9491,8483 9491,8480 9489,8477 9488,8475 9488,8473 9487,8471 9485,8469 9484,8468 9482,8466 9480,8465 9479,8464 9478,8464 9477,8463 9477,8462 9474,8462 9474,8462 9472,8461 9469,8460 9467,8459 9464,8459 9461,8458 9458,8458 9455,8458 9452,8458 9449,8458 9445,8458 9442,8458 9439,8458 9435,8459 9432,8460 9430,8460 9426,8461 9423,8462 9421,8463 9418,8464 9416,8466 9413,8468 9410,8470 9408,8471 9405,8473 9403,8475 9401,8477 9398,8480 9396,8483 9393,8485 9391,8488 9389,8491 9387,8494 9385,8498 9383,8501 9380,8509 9377,8517 9373,8526 9371,8535 9369,8543 9368,8550 9367,8557 9367,8563 9369,8568 9370,8570 9371,8573 9372,8575 9373,8577 9375,8579 9376,8580 9378,8582 9380,8584 9383,8585 9385,8586 9387,8587 9390,8588 9394,8589 9396,8589 9399,8590 9403,8591 9406,8591 9410,8591 9415,8591 9418,8591 9422,8591 9425,8591 9429,8591 9432,8591 9435,8590 9438,8589 9442,8589 9444,8588 9448,8587 9451,8586 9453,8585 9456,8583 9459,8582 9461,8580 9463,8578 9466,8576 9467,8574 9470,8572 9472,8570 9473,8567 9475,8564 9477,8561 9480,8555 9483,8549 9485,8541 9488,8533 9490,8524 Z"/>
        <path fill="none" stroke="rgb(242,234,74)" stroke-width="18" stroke-linejoin="miter" d="M 9570,8610 L 9581,8479 9582,8468 9583,8457 9583,8456 9583,8454 9583,8452 9583,8449 9583,8449 9583,8447 9584,8439 9616,8439 9615,8440 9616,8441 9616,8442 9616,8443 9616,8445 9616,8447 9616,8452 9616,8454 9616,8456 9616,8457 9617,8462 9616,8464 9616,8466 9616,8474 9617,8474 9619,8469 9621,8464 9623,8460 9625,8457 9626,8455 9627,8454 9628,8452 9629,8450 9631,8449 9632,8447 9634,8447 9635,8445 9637,8444 9638,8443 9640,8442 9641,8441 9643,8440 9645,8439 9649,8438 9650,8437 9652,8437 9654,8437 9656,8437 9659,8436 9661,8436 9663,8436 9666,8436 9668,8436 9669,8436 9670,8436 9671,8436 9672,8436 9673,8437 9673,8437 9674,8437 9674,8437 9675,8437 9676,8437 9677,8437 9678,8437 9679,8437 9680,8437 9680,8437 9680,8437 9681,8464 9680,8464 9679,8463 9678,8463 9677,8463 9676,8462 9675,8462 9674,8462 9673,8462 9672,8462 9671,8462 9668,8462 9666,8462 9664,8462 9663,8462 9660,8462 9657,8462 9654,8462 9652,8463 9648,8464 9646,8464 9644,8466 9642,8466 9640,8468 9638,8468 9636,8470 9634,8472 9633,8473 9631,8475 9630,8477 9627,8479 9625,8483 9623,8487 9621,8492 9619,8497 9618,8502 9617,8509 9615,8515 9615,8521 9612,8610 9570,8610 Z"/>
        <path fill="none" stroke="rgb(242,234,74)" stroke-width="18" stroke-linejoin="miter" d="M 9793,8613 L 9783,8613 9775,8612 9771,8612 9767,8611 9762,8610 9758,8610 9755,8609 9752,8608 9748,8606 9746,8606 9742,8604 9739,8603 9737,8601 9734,8599 9732,8597 9729,8596 9728,8594 9725,8592 9722,8588 9720,8583 9717,8578 9715,8573 9714,8568 9713,8562 9713,8558 9713,8554 9714,8551 9715,8547 9715,8544 9716,8540 9717,8537 9719,8534 9721,8532 9723,8530 9725,8527 9728,8525 9732,8523 9735,8521 9738,8519 9741,8517 9744,8516 9747,8515 9750,8513 9755,8513 9758,8511 9762,8511 9766,8510 9771,8509 9775,8509 9779,8508 9783,8507 9789,8507 9797,8506 9806,8506 9856,8506 9854,8496 9852,8492 9850,8487 9850,8485 9848,8483 9848,8481 9846,8479 9846,8477 9844,8475 9843,8473 9841,8472 9840,8471 9838,8469 9836,8468 9835,8466 9831,8464 9829,8464 9828,8462 9825,8462 9823,8461 9821,8460 9819,8460 9817,8459 9815,8459 9812,8458 9809,8458 9807,8458 9804,8458 9802,8458 9799,8458 9796,8458 9794,8458 9789,8458 9785,8458 9781,8459 9779,8459 9777,8460 9775,8460 9773,8460 9772,8461 9770,8462 9769,8462 9767,8463 9766,8464 9764,8464 9763,8466 9762,8466 9760,8468 9759,8468 9758,8471 9757,8475 9756,8476 9755,8477 9756,8479 9755,8481 9755,8483 9755,8485 9717,8482 9717,8479 9718,8477 9719,8475 9718,8473 9719,8471 9720,8468 9722,8466 9723,8464 9725,8460 9727,8458 9729,8456 9730,8454 9732,8452 9735,8450 9737,8449 9739,8447 9741,8446 9744,8445 9747,8443 9750,8443 9754,8441 9760,8439 9764,8439 9767,8438 9771,8437 9776,8437 9780,8437 9785,8436 9791,8436 9796,8436 9805,8436 9814,8437 9822,8438 9826,8439 9830,8440 9834,8441 9838,8442 9841,8443 9845,8444 9848,8446 9851,8447 9854,8449 9857,8451 9860,8453 9864,8455 9866,8457 9869,8459 9870,8461 9873,8464 9878,8468 9882,8475 9885,8480 9888,8487 9890,8494 9912,8567 9914,8573 9915,8576 9917,8578 9917,8580 9919,8582 9921,8585 9921,8585 9922,8586 9923,8587 9924,8587 9924,8589 9926,8589 9927,8589 9928,8590 9929,8591 9930,8591 9931,8591 9933,8592 9934,8592 9936,8592 9938,8593 9939,8593 9941,8593 9942,8593 9944,8593 9944,8593 9945,8593 9946,8593 9947,8592 9949,8592 9951,8592 9951,8592 9953,8592 9953,8592 9954,8592 9954,8591 9954,8591 9955,8591 9955,8591 9961,8609 9960,8609 9959,8610 9958,8610 9955,8610 9954,8610 9949,8610 9948,8611 9946,8611 9943,8611 9942,8612 9940,8612 9939,8612 9934,8612 9930,8612 9926,8612 9924,8612 9922,8612 9919,8611 9916,8611 9914,8610 9911,8610 9909,8610 9906,8609 9905,8608 9902,8608 9901,8607 9898,8606 9896,8605 9895,8604 9893,8603 9890,8601 9887,8598 9886,8597 9885,8595 9884,8594 9882,8592 9881,8591 9880,8589 9879,8587 9878,8585 9876,8583 9876,8581 9875,8577 9874,8577 9869,8585 9866,8589 9863,8592 9861,8594 9859,8595 9857,8597 9855,8598 9853,8599 9851,8601 9846,8604 9844,8604 9842,8606 9838,8606 9836,8608 9833,8608 9830,8609 9823,8610 9820,8611 9816,8612 9812,8612 9809,8612 9805,8612 9802,8613 9797,8613 9793,8613 Z"/>
        <path fill="none" stroke="rgb(242,234,74)" stroke-width="18" stroke-linejoin="miter" d="M 9799,8592 L 9804,8592 9809,8591 9814,8591 9817,8591 9822,8590 9825,8589 9829,8588 9832,8587 9835,8585 9839,8585 9842,8583 9845,8581 9847,8580 9850,8578 9852,8576 9854,8574 9856,8572 9858,8570 9859,8568 9860,8566 9861,8564 9863,8562 9864,8557 9865,8555 9865,8553 9866,8551 9865,8549 9866,8547 9866,8544 9865,8542 9864,8540 9861,8526 9819,8526 9812,8526 9805,8527 9792,8528 9789,8528 9787,8528 9784,8529 9781,8530 9779,8530 9776,8531 9774,8532 9772,8533 9770,8534 9768,8535 9766,8536 9763,8538 9761,8539 9760,8540 9758,8542 9757,8544 9757,8546 9756,8548 9755,8550 9754,8552 9754,8555 9753,8557 9754,8560 9754,8563 9754,8566 9756,8569 9756,8572 9758,8575 9760,8578 9761,8578 9762,8580 9763,8581 9765,8582 9766,8583 9767,8584 9768,8585 9770,8586 9772,8587 9774,8587 9775,8588 9777,8589 9780,8589 9781,8590 9784,8591 9786,8591 9787,8591 9790,8591 9792,8592 9795,8592 9799,8592 Z"/>
        <path fill="none" stroke="rgb(242,234,74)" stroke-width="18" stroke-linejoin="miter" d="M 9994,8610 L 9946,8479 9942,8468 9938,8457 9937,8456 9937,8454 9936,8452 9934,8449 9934,8449 9933,8447 9930,8439 9962,8439 9963,8440 9964,8441 9964,8442 9965,8443 9966,8445 9967,8447 9969,8452 9969,8454 9970,8456 9971,8457 9974,8462 9974,8464 9975,8466 9979,8474 9980,8474 9980,8469 9979,8464 9979,8460 9980,8457 9980,8455 9980,8454 9981,8452 9981,8450 9982,8449 9983,8447 9985,8447 9985,8445 9986,8444 9987,8443 9988,8442 9989,8441 9991,8440 9991,8439 9995,8438 9996,8437 9998,8437 10000,8437 10002,8437 10005,8436 10007,8436 10009,8436 10012,8436 10014,8436 10015,8436 10016,8436 10017,8436 10018,8436 10019,8437 10019,8437 10020,8437 10020,8437 10021,8437 10022,8437 10023,8437 10024,8437 10025,8437 10026,8437 10026,8437 10026,8437 10039,8464 10038,8464 10037,8463 10036,8463 10035,8463 10034,8462 10032,8462 10031,8462 10030,8462 10029,8462 10028,8462 10025,8462 10023,8462 10021,8462 10020,8462 10017,8462 10014,8462 10011,8462 10009,8463 10006,8464 10005,8464 10003,8466 10001,8466 10000,8468 9998,8468 9997,8470 9995,8472 9995,8473 9993,8475 9993,8477 9992,8479 9992,8483 9992,8487 9991,8492 9992,8497 9994,8502 9995,8509 9996,8515 9999,8521 10036,8610 9994,8610 Z"/>
        <path fill="none" stroke="rgb(242,234,74)" stroke-width="18" stroke-linejoin="miter" d="M 10261,8610 L 10262,8625 10261,8631 10260,8637 10259,8644 10257,8649 10256,8652 10255,8654 10254,8656 10252,8658 10250,8661 10248,8663 10246,8665 10244,8667 10242,8668 10239,8669 10237,8671 10234,8672 10231,8673 10227,8674 10224,8675 10219,8675 10215,8676 10210,8677 10207,8677 10201,8677 10186,8677 10184,8677 10183,8676 10179,8676 10176,8676 10174,8675 10172,8675 10170,8675 10159,8654 10159,8654 10160,8654 10160,8654 10162,8654 10163,8654 10165,8654 10166,8654 10167,8654 10170,8654 10180,8654 10183,8654 10185,8654 10188,8654 10189,8654 10191,8654 10193,8653 10196,8653 10197,8652 10199,8652 10201,8651 10204,8650 10208,8648 10211,8646 10213,8643 10215,8640 10217,8637 10219,8633 10220,8629 10220,8625 10221,8620 10220,8616 10221,8609 10035,8439 10072,8439 10173,8534 10186,8545 10201,8559 10209,8566 10212,8569 10215,8572 10217,8573 10218,8574 10220,8576 10221,8578 10223,8578 10223,8579 10223,8579 10223,8579 10223,8578 10222,8578 10222,8576 10221,8572 10219,8561 10218,8548 10217,8542 10217,8539 10217,8537 10192,8439 10229,8439 10261,8610 Z"/>
       </g>
      </g>
     </g>
    </g>
   </g>
  </g>
 </g>
</svg>